<?xml version="1.0" encoding="UTF-8"?>
<svg width="217px" height="217px" viewBox="0 0 217 217" version="1.1" xmlns="http://www.w3.org/2000/svg" xmlns:xlink="http://www.w3.org/1999/xlink">
    <!-- Generator: Sketch 63 (92445) - https://sketch.com -->
    <title>画板</title>
    <desc>Created with Sketch.</desc>
    <g id="画板" stroke="none" stroke-width="1" fill="none" fill-rule="evenodd">
        <path d="M164.486,19.4762736 L164.486,42.5 C164.486,43.6045695 163.590569,44.5 162.486,44.5 L135.5,44.5 L135.5,44.5 C101.874143,44.5 74.5513329,62.4581245 74.0082392,104.712132 L74,106 C74,148.74548 100.986552,167.13106 134.482985,167.494497 L135.5,167.5 L147.5,167.5 L147.5,106 C147.5,104.895431 148.395431,104 149.5,104 L168.979747,104 C170.084317,104 170.979747,104.895431 170.979747,106 L170.979747,180.5 L170.979747,180.5 C170.979747,192.987124 169.464945,194.229867 157.292392,194.496578 L156.979747,194.5 L135.5,194.5 C86.6227996,194.5 47,170.863555 47,106 C47,41.7850801 85.8343059,17.9768516 134.036491,17.5071085 C144.990851,17.4003554 154.48119,17.3901156 162.507508,17.4763892 C163.603622,17.4881831 164.486,18.3800964 164.486,19.4762736 Z" id="形状结合" fill="#7546c9" fill-rule="nonzero" transform="translate(108.989874, 105.959275) rotate(-270.000000) translate(-108.989874, -105.959275) "></path>
    </g>
</svg>
